<svg width="800" height="400" xmlns="http://www.w3.org/2000/svg" style="background-color: white; font-family: sans-serif;">
<text x="400.0" y="30" text-anchor="middle" font-size="16" font-weight="bold">HESTIA BKT Learning Curve: Random Clicker</text>
<rect x="50" y="50" width="700" height="300" fill="none" stroke="#ddd" />
<line x1="50" y1="350.0" x2="750" y2="350.0" stroke="#eee" />
<text x="40" y="354.0" text-anchor="end" font-size="10">0.0</text>
<line x1="50" y1="290.0" x2="750" y2="290.0" stroke="#eee" />
<text x="40" y="294.0" text-anchor="end" font-size="10">0.2</text>
<line x1="50" y1="230.0" x2="750" y2="230.0" stroke="#eee" />
<text x="40" y="234.0" text-anchor="end" font-size="10">0.4</text>
<line x1="50" y1="170.0" x2="750" y2="170.0" stroke="#eee" />
<text x="40" y="174.0" text-anchor="end" font-size="10">0.6</text>
<line x1="50" y1="110.0" x2="750" y2="110.0" stroke="#eee" />
<text x="40" y="114.0" text-anchor="end" font-size="10">0.8</text>
<line x1="50" y1="50.0" x2="750" y2="50.0" stroke="#eee" />
<text x="40" y="54.0" text-anchor="end" font-size="10">1.0</text>
<line x1="50" y1="56.0" x2="750" y2="56.0" stroke="grey" stroke-dasharray="5,5" />
<text x="755" y="60.0" font-size="10" fill="grey">0.98 (Cap)</text>
<line x1="50" y1="80.0" x2="750" y2="80.0" stroke="green" stroke-dasharray="5,5" />
<text x="755" y="84.0" font-size="10" fill="green">0.90 (Mastery)</text>
<polyline points="50.0,350.0 57.07070707070707,350.0 64.14141414141415,350.0 71.21212121212122,350.0 78.28282828282829,350.0 85.35353535353535,350.0 92.42424242424242,350.0 99.4949494949495,350.0 106.56565656565657,350.0 113.63636363636364,350.0 120.7070707070707,350.0 127.77777777777777,350.0 134.84848484848484,350.0 141.91919191919192,350.0 148.989898989899,350.0 156.06060606060606,350.0 163.13131313131314,350.0 170.2020202020202,350.0 177.27272727272728,350.0 184.34343434343432,350.0 191.4141414141414,350.0 198.4848484848485,350.0 205.55555555555554,350.0 212.62626262626262,350.0 219.6969696969697,350.0 226.7676767676768,350.0 233.83838383838386,350.0 240.9090909090909,350.0 247.97979797979798,350.0 255.05050505050505,350.0 262.1212121212121,350.0 269.19191919191917,350.0 276.26262626262627,350.0 283.3333333333333,350.0 290.4040404040404,350.0 297.47474747474746,350.0 304.54545454545456,350.0 311.6161616161616,350.0 318.68686868686865,350.0 325.75757575757575,350.0 332.8282828282828,350.0 339.8989898989899,350.0 346.969696969697,350.0 354.04040404040404,350.0 361.1111111111111,350.0 368.1818181818182,350.0 375.25252525252523,350.0 382.32323232323233,350.0 389.3939393939394,350.0 396.4646464646465,350.0 403.5353535353536,350.0 410.6060606060606,350.0 417.6767676767677,350.0 424.74747474747477,350.0 431.8181818181818,350.0 438.8888888888889,350.0 445.95959595959596,350.0 453.03030303030306,350.0 460.1010101010101,350.0 467.17171717171715,350.0 474.24242424242425,350.0 481.3131313131313,350.0 488.3838383838384,350.0 495.45454545454544,350.0 502.52525252525254,350.0 509.5959595959596,350.0 516.6666666666666,350.0 523.7373737373737,350.0 530.8080808080808,350.0 537.878787878788,350.0 544.9494949494949,350.0 552.020202020202,350.0 559.0909090909091,350.0 566.1616161616162,350.0 573.2323232323232,350.0 580.3030303030303,350.0 587.3737373737373,350.0 594.4444444444445,350.0 601.5151515151515,350.0 608.5858585858587,350.0 615.6565656565656,350.0 622.7272727272727,350.0 629.7979797979798,350.0 636.8686868686868,350.0 643.939393939394,350.0 651.010101010101,350.0 658.0808080808081,350.0 665.1515151515151,350.0 672.2222222222222,350.0 679.2929292929293,350.0 686.3636363636364,350.0 693.4343434343434,350.0 700.5050505050505,350.0 707.5757575757576,350.0 714.6464646464647,350.0 721.7171717171717,350.0 728.7878787878788,350.0 735.8585858585858,350.0 742.929292929293,350.0 750.0,350.0" fill="none" stroke="red" stroke-width="2" stroke-dasharray="4,4" opacity="0.7" />
<polyline points="50.0,350.0 57.07070707070707,350.0 64.14141414141415,350.0 71.21212121212122,350.0 78.28282828282829,350.0 85.35353535353535,350.0 92.42424242424242,350.0 99.4949494949495,350.0 106.56565656565657,350.0 113.63636363636364,350.0 120.7070707070707,350.0 127.77777777777777,350.0 134.84848484848484,350.0 141.91919191919192,350.0 148.989898989899,350.0 156.06060606060606,350.0 163.13131313131314,350.0 170.2020202020202,350.0 177.27272727272728,350.0 184.34343434343432,350.0 191.4141414141414,350.0 198.4848484848485,350.0 205.55555555555554,350.0 212.62626262626262,350.0 219.6969696969697,350.0 226.7676767676768,350.0 233.83838383838386,350.0 240.9090909090909,350.0 247.97979797979798,350.0 255.05050505050505,350.0 262.1212121212121,350.0 269.19191919191917,350.0 276.26262626262627,350.0 283.3333333333333,350.0 290.4040404040404,350.0 297.47474747474746,350.0 304.54545454545456,350.0 311.6161616161616,350.0 318.68686868686865,350.0 325.75757575757575,350.0 332.8282828282828,350.0 339.8989898989899,350.0 346.969696969697,350.0 354.04040404040404,350.0 361.1111111111111,350.0 368.1818181818182,350.0 375.25252525252523,350.0 382.32323232323233,350.0 389.3939393939394,350.0 396.4646464646465,350.0 403.5353535353536,350.0 410.6060606060606,350.0 417.6767676767677,350.0 424.74747474747477,350.0 431.8181818181818,350.0 438.8888888888889,350.0 445.95959595959596,350.0 453.03030303030306,350.0 460.1010101010101,350.0 467.17171717171715,350.0 474.24242424242425,350.0 481.3131313131313,350.0 488.3838383838384,350.0 495.45454545454544,350.0 502.52525252525254,350.0 509.5959595959596,350.0 516.6666666666666,350.0 523.7373737373737,350.0 530.8080808080808,350.0 537.878787878788,350.0 544.9494949494949,350.0 552.020202020202,350.0 559.0909090909091,350.0 566.1616161616162,350.0 573.2323232323232,350.0 580.3030303030303,350.0 587.3737373737373,350.0 594.4444444444445,350.0 601.5151515151515,350.0 608.5858585858587,350.0 615.6565656565656,350.0 622.7272727272727,350.0 629.7979797979798,350.0 636.8686868686868,350.0 643.939393939394,350.0 651.010101010101,350.0 658.0808080808081,350.0 665.1515151515151,350.0 672.2222222222222,350.0 679.2929292929293,350.0 686.3636363636364,350.0 693.4343434343434,350.0 700.5050505050505,350.0 707.5757575757576,350.0 714.6464646464647,350.0 721.7171717171717,350.0 728.7878787878788,350.0 735.8585858585858,350.0 742.929292929293,350.0 750.0,350.0" fill="none" stroke="blue" stroke-width="2" />
<circle cx="50.0" cy="350.0" r="3" fill="blue" />
<circle cx="57.07070707070707" cy="350.0" r="3" fill="blue" />
<circle cx="64.14141414141415" cy="350.0" r="3" fill="blue" />
<circle cx="71.21212121212122" cy="350.0" r="3" fill="blue" />
<circle cx="78.28282828282829" cy="350.0" r="3" fill="blue" />
<circle cx="85.35353535353535" cy="350.0" r="3" fill="blue" />
<circle cx="92.42424242424242" cy="350.0" r="3" fill="blue" />
<circle cx="99.4949494949495" cy="350.0" r="3" fill="blue" />
<circle cx="106.56565656565657" cy="350.0" r="3" fill="blue" />
<circle cx="113.63636363636364" cy="350.0" r="3" fill="blue" />
<circle cx="120.7070707070707" cy="350.0" r="3" fill="blue" />
<circle cx="127.77777777777777" cy="350.0" r="3" fill="blue" />
<circle cx="134.84848484848484" cy="350.0" r="3" fill="blue" />
<circle cx="141.91919191919192" cy="350.0" r="3" fill="blue" />
<circle cx="148.989898989899" cy="350.0" r="3" fill="blue" />
<circle cx="156.06060606060606" cy="350.0" r="3" fill="blue" />
<circle cx="163.13131313131314" cy="350.0" r="3" fill="blue" />
<circle cx="170.2020202020202" cy="350.0" r="3" fill="blue" />
<circle cx="177.27272727272728" cy="350.0" r="3" fill="blue" />
<circle cx="184.34343434343432" cy="350.0" r="3" fill="blue" />
<circle cx="191.4141414141414" cy="350.0" r="3" fill="blue" />
<circle cx="198.4848484848485" cy="350.0" r="3" fill="blue" />
<circle cx="205.55555555555554" cy="350.0" r="3" fill="blue" />
<circle cx="212.62626262626262" cy="350.0" r="3" fill="blue" />
<circle cx="219.6969696969697" cy="350.0" r="3" fill="blue" />
<circle cx="226.7676767676768" cy="350.0" r="3" fill="blue" />
<circle cx="233.83838383838386" cy="350.0" r="3" fill="blue" />
<circle cx="240.9090909090909" cy="350.0" r="3" fill="blue" />
<circle cx="247.97979797979798" cy="350.0" r="3" fill="blue" />
<circle cx="255.05050505050505" cy="350.0" r="3" fill="blue" />
<circle cx="262.1212121212121" cy="350.0" r="3" fill="blue" />
<circle cx="269.19191919191917" cy="350.0" r="3" fill="blue" />
<circle cx="276.26262626262627" cy="350.0" r="3" fill="blue" />
<circle cx="283.3333333333333" cy="350.0" r="3" fill="blue" />
<circle cx="290.4040404040404" cy="350.0" r="3" fill="blue" />
<circle cx="297.47474747474746" cy="350.0" r="3" fill="blue" />
<circle cx="304.54545454545456" cy="350.0" r="3" fill="blue" />
<circle cx="311.6161616161616" cy="350.0" r="3" fill="blue" />
<circle cx="318.68686868686865" cy="350.0" r="3" fill="blue" />
<circle cx="325.75757575757575" cy="350.0" r="3" fill="blue" />
<circle cx="332.8282828282828" cy="350.0" r="3" fill="blue" />
<circle cx="339.8989898989899" cy="350.0" r="3" fill="blue" />
<circle cx="346.969696969697" cy="350.0" r="3" fill="blue" />
<circle cx="354.04040404040404" cy="350.0" r="3" fill="blue" />
<circle cx="361.1111111111111" cy="350.0" r="3" fill="blue" />
<circle cx="368.1818181818182" cy="350.0" r="3" fill="blue" />
<circle cx="375.25252525252523" cy="350.0" r="3" fill="blue" />
<circle cx="382.32323232323233" cy="350.0" r="3" fill="blue" />
<circle cx="389.3939393939394" cy="350.0" r="3" fill="blue" />
<circle cx="396.4646464646465" cy="350.0" r="3" fill="blue" />
<circle cx="403.5353535353536" cy="350.0" r="3" fill="blue" />
<circle cx="410.6060606060606" cy="350.0" r="3" fill="blue" />
<circle cx="417.6767676767677" cy="350.0" r="3" fill="blue" />
<circle cx="424.74747474747477" cy="350.0" r="3" fill="blue" />
<circle cx="431.8181818181818" cy="350.0" r="3" fill="blue" />
<circle cx="438.8888888888889" cy="350.0" r="3" fill="blue" />
<circle cx="445.95959595959596" cy="350.0" r="3" fill="blue" />
<circle cx="453.03030303030306" cy="350.0" r="3" fill="blue" />
<circle cx="460.1010101010101" cy="350.0" r="3" fill="blue" />
<circle cx="467.17171717171715" cy="350.0" r="3" fill="blue" />
<circle cx="474.24242424242425" cy="350.0" r="3" fill="blue" />
<circle cx="481.3131313131313" cy="350.0" r="3" fill="blue" />
<circle cx="488.3838383838384" cy="350.0" r="3" fill="blue" />
<circle cx="495.45454545454544" cy="350.0" r="3" fill="blue" />
<circle cx="502.52525252525254" cy="350.0" r="3" fill="blue" />
<circle cx="509.5959595959596" cy="350.0" r="3" fill="blue" />
<circle cx="516.6666666666666" cy="350.0" r="3" fill="blue" />
<circle cx="523.7373737373737" cy="350.0" r="3" fill="blue" />
<circle cx="530.8080808080808" cy="350.0" r="3" fill="blue" />
<circle cx="537.878787878788" cy="350.0" r="3" fill="blue" />
<circle cx="544.9494949494949" cy="350.0" r="3" fill="blue" />
<circle cx="552.020202020202" cy="350.0" r="3" fill="blue" />
<circle cx="559.0909090909091" cy="350.0" r="3" fill="blue" />
<circle cx="566.1616161616162" cy="350.0" r="3" fill="blue" />
<circle cx="573.2323232323232" cy="350.0" r="3" fill="blue" />
<circle cx="580.3030303030303" cy="350.0" r="3" fill="blue" />
<circle cx="587.3737373737373" cy="350.0" r="3" fill="blue" />
<circle cx="594.4444444444445" cy="350.0" r="3" fill="blue" />
<circle cx="601.5151515151515" cy="350.0" r="3" fill="blue" />
<circle cx="608.5858585858587" cy="350.0" r="3" fill="blue" />
<circle cx="615.6565656565656" cy="350.0" r="3" fill="blue" />
<circle cx="622.7272727272727" cy="350.0" r="3" fill="blue" />
<circle cx="629.7979797979798" cy="350.0" r="3" fill="blue" />
<circle cx="636.8686868686868" cy="350.0" r="3" fill="blue" />
<circle cx="643.939393939394" cy="350.0" r="3" fill="blue" />
<circle cx="651.010101010101" cy="350.0" r="3" fill="blue" />
<circle cx="658.0808080808081" cy="350.0" r="3" fill="blue" />
<circle cx="665.1515151515151" cy="350.0" r="3" fill="blue" />
<circle cx="672.2222222222222" cy="350.0" r="3" fill="blue" />
<circle cx="679.2929292929293" cy="350.0" r="3" fill="blue" />
<circle cx="686.3636363636364" cy="350.0" r="3" fill="blue" />
<circle cx="693.4343434343434" cy="350.0" r="3" fill="blue" />
<circle cx="700.5050505050505" cy="350.0" r="3" fill="blue" />
<circle cx="707.5757575757576" cy="350.0" r="3" fill="blue" />
<circle cx="714.6464646464647" cy="350.0" r="3" fill="blue" />
<circle cx="721.7171717171717" cy="350.0" r="3" fill="blue" />
<circle cx="728.7878787878788" cy="350.0" r="3" fill="blue" />
<circle cx="735.8585858585858" cy="350.0" r="3" fill="blue" />
<circle cx="742.929292929293" cy="350.0" r="3" fill="blue" />
<circle cx="750.0" cy="350.0" r="3" fill="blue" />
<rect x="60" y="60" width="140" height="40" fill="white" stroke="#ccc" />
<line x1="65" y1="70" x2="85" y2="70" stroke="blue" stroke-width="2" />
<text x="90" y="74" font-size="10">Operative P(L)</text>
<line x1="65" y1="90" x2="85" y2="90" stroke="red" stroke-width="2" stroke-dasharray="4,4" />
<text x="90" y="94" font-size="10">Theoretical P(L)</text>
</svg>